<?xml version="1.0" encoding="UTF-8" standalone="no"?>
<!DOCTYPE svg PUBLIC "-//W3C//DTD SVG 1.1//EN" "http://www.w3.org/Graphics/SVG/1.1/DTD/svg11.dtd">
<svg version="1.1" xmlns="http://www.w3.org/2000/svg" xmlns:xlink="http://www.w3.org/1999/xlink" preserveAspectRatio="xMidYMid meet" viewBox="0 0 200 200" width="200" height="200"><defs><path d="M180.42 0C191.23 0 200 8.77 200 19.58C200 55.67 200 143.92 200 179.9C200 191 191 200 179.9 200C143.92 200 56.08 200 20.1 200C9 200 0 191 0 179.9C0 143.92 0 56.49 0 20.61C0 9.23 9.23 0 20.61 0C56.49 0 144.33 0 180.42 0Z" id="a1NYHOSA8m"></path><path d="M168 152C168 160.28 161.28 167 153 167C144.72 167 138 160.28 138 152C138 143.72 144.72 137 153 137C161.28 137 168 143.72 168 152Z" id="d1uvGiXUop"></path><path d="M115 100C115 108.28 108.28 115 100 115C91.72 115 85 108.28 85 100C85 91.72 91.72 85 100 85C108.28 85 115 91.72 115 100Z" id="b3g2q0ATz3"></path><path d="M62.43 47.97C62.43 56.25 55.71 62.97 47.43 62.97C39.15 62.97 32.43 56.25 32.43 47.97C32.43 39.69 39.15 32.97 47.43 32.97C55.71 32.97 62.43 39.69 62.43 47.97Z" id="c2qGlsTQDS"></path></defs><g><g><g><use xlink:href="#a1NYHOSA8m" opacity="1" fill="#ececec" fill-opacity="1"></use></g><g><use xlink:href="#d1uvGiXUop" opacity="1" fill="#484848" fill-opacity="1"></use></g><g><use xlink:href="#b3g2q0ATz3" opacity="1" fill="#484848" fill-opacity="1"></use></g><g><use xlink:href="#c2qGlsTQDS" opacity="1" fill="#484848" fill-opacity="1"></use></g></g></g></svg>