<?xml version="1.0" encoding="UTF-8" standalone="no"?>
<!DOCTYPE svg PUBLIC "-//W3C//DTD SVG 1.1//EN" "http://www.w3.org/Graphics/SVG/1.1/DTD/svg11.dtd">
<svg version="1.1" xmlns="http://www.w3.org/2000/svg" xmlns:xlink="http://www.w3.org/1999/xlink" preserveAspectRatio="xMidYMid meet" viewBox="0 0 200 200" width="200" height="200"><defs><path d="M180.42 0C191.24 0 200 8.77 200 19.59C200 55.67 200 143.93 200 179.91C200 191.01 191.01 200.01 179.91 200.01C143.93 200.01 56.08 200.01 20.1 200.01C9 200.01 0 191.01 0 179.91C0 143.93 0 56.5 0 20.62C0 9.23 9.23 0 20.62 0C56.5 0 144.34 0 180.42 0Z" id="a2u3fLof7l"></path><path d="M155.62 140.63C155.62 148.9 148.9 155.63 140.63 155.63C132.35 155.63 125.63 148.9 125.63 140.63C125.63 132.35 132.35 125.63 140.63 125.63C148.9 125.63 155.62 132.35 155.62 140.63Z" id="b4asrubufg"></path><path d="M78 63C78 71.28 71.28 78 63 78C54.72 78 48 71.28 48 63C48 54.72 54.72 48 63 48C71.28 48 78 54.72 78 63Z" id="cfwxANp6e"></path></defs><g><g><g><use xlink:href="#a2u3fLof7l" opacity="1" fill="#ececec" fill-opacity="1"></use></g><g><use xlink:href="#b4asrubufg" opacity="1" fill="#484848" fill-opacity="1"></use></g><g><use xlink:href="#cfwxANp6e" opacity="1" fill="#484848" fill-opacity="1"></use></g></g></g></svg>