<?xml version="1.0" encoding="UTF-8" standalone="no"?>
<!DOCTYPE svg PUBLIC "-//W3C//DTD SVG 1.1//EN" "http://www.w3.org/Graphics/SVG/1.1/DTD/svg11.dtd">
<svg version="1.1" xmlns="http://www.w3.org/2000/svg" xmlns:xlink="http://www.w3.org/1999/xlink" preserveAspectRatio="xMidYMid meet" viewBox="0 0 200 200" width="200" height="200"><defs><path d="M180.42 0C191.24 0 200 8.77 200 19.59C200 55.67 200 143.93 200 179.91C200 191.01 191.01 200.01 179.91 200.01C143.93 200.01 56.08 200.01 20.1 200.01C9 200.01 0 191.01 0 179.91C0 143.93 0 56.5 0 20.62C0 9.23 9.23 0 20.62 0C56.5 0 144.34 0 180.42 0Z" id="a1cKTfK6yE"></path><path d="M170 155.01C170 163.28 163.27 170.01 155 170.01C146.72 170.01 140 163.28 140 155.01C140 146.73 146.72 140.01 155 140.01C163.27 140.01 170 146.73 170 155.01Z" id="e49mq1hUbb"></path><path d="M62 47C62 55.28 55.28 62 47 62C38.72 62 32 55.28 32 47C32 38.72 38.72 32 47 32C55.28 32 62 38.72 62 47Z" id="bAVVi2gCZ"></path><path d="M170 47C170 55.28 163.28 62 155 62C146.72 62 140 55.28 140 47C140 38.72 146.72 32 155 32C163.28 32 170 38.72 170 47Z" id="b1iiLmTxh"></path><path d="M62 155C62 163.28 55.28 170 47 170C38.72 170 32 163.28 32 155C32 146.72 38.72 140 47 140C55.28 140 62 146.72 62 155Z" id="bDp48RrS"></path><path d="M61.99 102C61.99 110.28 55.27 117 47 117C38.72 117 32 110.28 32 102C32 93.72 38.72 87 47 87C55.27 87 61.99 93.72 61.99 102Z" id="d1ocVxftR7"></path><path d="M170 101.99C170 110.27 163.28 116.99 155 116.99C146.72 116.99 140 110.27 140 101.99C140 93.72 146.72 87 155 87C163.28 87 170 93.72 170 101.99Z" id="b1BNGoai3H"></path></defs><g><g><g><use xlink:href="#a1cKTfK6yE" opacity="1" fill="#ececec" fill-opacity="1"></use></g><g><use xlink:href="#e49mq1hUbb" opacity="1" fill="#484848" fill-opacity="1"></use></g><g><use xlink:href="#bAVVi2gCZ" opacity="1" fill="#484848" fill-opacity="1"></use></g><g><use xlink:href="#b1iiLmTxh" opacity="1" fill="#484848" fill-opacity="1"></use></g><g><use xlink:href="#bDp48RrS" opacity="1" fill="#484848" fill-opacity="1"></use></g><g><use xlink:href="#d1ocVxftR7" opacity="1" fill="#484848" fill-opacity="1"></use></g><g><use xlink:href="#b1BNGoai3H" opacity="1" fill="#484848" fill-opacity="1"></use></g></g></g></svg>